<svg xmlns="http://www.w3.org/2000/svg" width="860" height="280" viewBox="0 0 860 280" role="img" aria-labelledby="title desc">
  <title id="title">Snapshot público de GitHub de Jorge Suárez</title>
  <desc id="desc">Al 22 de agosto de 2026: 322 repositorios públicos, 13 originales y 309 forks. En los repositorios originales activos, HTML representa 39 por ciento del código, JavaScript 38 por ciento y CSS 23 por ciento.</desc>
  <rect width="860" height="280" rx="18" fill="#0d1117"/>
  <rect x="1" y="1" width="858" height="278" rx="17" fill="none" stroke="#30363d"/>

  <g font-family="-apple-system, BlinkMacSystemFont, Segoe UI, Helvetica, Arial, sans-serif">
    <text x="34" y="42" fill="#f0f6fc" font-size="20" font-weight="700">GitHub público</text>
    <text x="718" y="42" fill="#8b949e" font-size="12">22 AGO 2026</text>

    <text x="34" y="82" fill="#f0f6fc" font-size="30" font-weight="700">322</text>
    <text x="102" y="82" fill="#8b949e" font-size="14">repositorios públicos</text>
    <rect x="34" y="101" width="792" height="16" rx="8" fill="#21262d"/>
    <rect x="34" y="101" width="32" height="16" rx="8" fill="#a855f7"/>
    <circle cx="34" cy="144" r="5" fill="#a855f7"/>
    <text x="48" y="149" fill="#c9d1d9" font-size="14"><tspan font-weight="700">13 originales</tspan> · 4%</text>
    <circle cx="178" cy="144" r="5" fill="#484f58"/>
    <text x="192" y="149" fill="#c9d1d9" font-size="14"><tspan font-weight="700">309 forks</tspan> · biblioteca de referencia</text>

    <line x1="34" y1="171" x2="826" y2="171" stroke="#30363d"/>

    <text x="34" y="205" fill="#f0f6fc" font-size="16" font-weight="700">Lenguajes · código original activo</text>
    <rect x="34" y="223" width="309" height="18" rx="5" fill="#e34c26"/>
    <rect x="343" y="223" width="301" height="18" fill="#f1e05a"/>
    <rect x="644" y="223" width="182" height="18" rx="5" fill="#563d7c"/>
    <circle cx="34" cy="260" r="5" fill="#e34c26"/>
    <text x="48" y="265" fill="#c9d1d9" font-size="13">HTML 39%</text>
    <circle cx="145" cy="260" r="5" fill="#f1e05a"/>
    <text x="159" y="265" fill="#c9d1d9" font-size="13">JavaScript 38%</text>
    <circle cx="301" cy="260" r="5" fill="#563d7c"/>
    <text x="315" y="265" fill="#c9d1d9" font-size="13">CSS 23%</text>
  </g>
</svg>
